<?xml version="1.0" encoding="UTF-8" standalone="no"?>
<!DOCTYPE svg PUBLIC "-//W3C//DTD SVG 1.1//EN" "http://www.w3.org/Graphics/SVG/1.1/DTD/svg11.dtd">
<svg xmlns="http://www.w3.org/2000/svg" version="1.1" viewBox="0.00 0.00 720.00 177.00">
<g stroke-width="2.00" fill="none" stroke-linecap="butt">
<path stroke="#89c0ea" vector-effect="non-scaling-stroke" d="
  M 571.66 43.85
  A 11.10 11.10 0.0 0 0 560.56 32.75
  A 11.10 11.10 0.0 0 0 549.46 43.85
  A 11.10 11.10 0.0 0 0 560.56 54.95
  A 11.10 11.10 0.0 0 0 571.66 43.85"
/>
<path stroke="#89c0ea" vector-effect="non-scaling-stroke" d="
  M 610.25 64.50
  L 610.25 54.52
  A 2.86 2.86 0.0 0 1 613.03 51.66
  L 622.71 51.41
  A 0.62 0.61 89.0 0 0 623.30 50.79
  L 623.23 37.23
  Q 623.22 36.65 622.65 36.62
  C 611.93 36.03 595.41 35.44 592.13 47.94
  C 590.99 52.29 591.62 58.95 591.22 64.35
  Q 591.17 65.00 590.53 65.00
  L 581.87 65.00
  Q 581.25 65.00 581.25 65.63
  L 581.18 78.96
  Q 581.17 79.50 581.71 79.50
  L 590.79 79.50
  Q 591.32 79.50 591.32 80.04
  L 591.55 125.90
  Q 591.56 126.50 592.15 126.50
  L 608.97 126.50
  A 1.28 1.28 0.0 0 0 610.25 125.22
  L 610.25 80.00
  Q 610.25 79.50 610.75 79.50
  L 622.79 79.50
  Q 623.33 79.50 623.33 78.96
  L 623.21 65.73
  A 0.73 0.73 0.0 0 0 622.48 65.00
  L 610.75 65.00
  Q 610.25 65.00 610.25 64.50"
/>
<path stroke="#89c0ea" vector-effect="non-scaling-stroke" d="
  M 107.17 108.84
  L 90.72 102.77
  A 0.50 0.49 25.9 0 0 90.13 102.97
  C 87.37 107.41 83.39 110.11 78.12 111.15
  C 42.77 118.20 44.16 53.16 76.49 59.01
  Q 84.77 60.51 89.32 67.35
  A 0.74 0.74 0.0 0 0 90.19 67.64
  L 105.99 62.02
  A 0.85 0.84 -25.6 0 0 106.43 60.78
  C 93.06 38.91 61.34 36.42 43.11 53.58
  C 27.77 68.01 27.79 99.57 41.26 115.05
  C 51.46 126.76 68.90 130.11 83.72 126.42
  Q 99.18 122.57 107.24 109.05
  A 0.15 0.14 -64.1 0 0 107.17 108.84"
/>
<path stroke="#89c0ea" vector-effect="non-scaling-stroke" d="
  M 515.00 64.55
  L 515.00 50.50
  Q 515.00 50.00 514.50 50.00
  L 496.75 50.00
  Q 496.25 50.00 496.25 50.50
  L 496.25 64.22
  Q 496.25 65.01 495.46 65.01
  L 487.25 65.00
  A 1.25 1.25 0.0 0 0 486.00 66.25
  L 486.00 78.84
  A 0.65 0.65 0.0 0 0 486.65 79.49
  L 495.75 79.50
  Q 496.23 79.50 496.23 79.99
  Q 496.27 94.49 496.29 109.00
  C 496.30 116.47 497.76 124.32 506.02 125.48
  Q 517.03 127.03 527.91 126.37
  A 0.63 0.63 0.0 0 0 528.50 125.74
  L 528.50 111.77
  A 0.48 0.48 0.0 0 0 528.03 111.29
  C 522.88 111.21 515.24 112.33 515.09 105.91
  Q 514.82 95.23 515.07 79.95
  Q 515.08 79.50 515.52 79.50
  L 528.00 79.50
  A 0.50 0.50 0.0 0 0 528.50 79.00
  L 528.50 65.99
  A 1.01 1.01 0.0 0 0 527.49 64.98
  L 515.49 65.03
  Q 515.00 65.04 515.00 64.55"
/>
<path stroke="#89c0ea" vector-effect="non-scaling-stroke" d="
  M 213.77 72.23
  L 211.79 65.54
  A 0.76 0.75 -8.2 0 0 211.06 65.00
  L 195.89 65.00
  A 0.67 0.67 0.0 0 0 195.22 65.67
  L 195.51 125.88
  A 0.63 0.62 89.5 0 0 196.13 126.50
  L 213.21 126.50
  Q 213.74 126.50 213.74 125.97
  Q 213.67 110.78 214.07 95.94
  C 214.30 87.65 215.04 77.61 225.97 78.10
  C 234.07 78.47 234.44 84.94 234.51 91.25
  Q 234.72 108.55 235.08 126.09
  A 0.42 0.42 0.0 0 0 235.50 126.50
  L 252.74 126.50
  A 0.92 0.91 90.0 0 0 253.65 125.58
  Q 253.46 107.05 253.46 90.27
  C 253.46 79.78 252.46 67.22 239.91 64.46
  Q 224.58 61.08 214.37 72.37
  Q 213.95 72.84 213.77 72.23"
/>
<path stroke="#89c0ea" vector-effect="non-scaling-stroke" d="
  M 289.65 72.32
  Q 288.77 69.88 288.00 66.48
  Q 287.60 64.71 285.90 64.89
  C 281.45 65.35 276.49 65.02 272.07 64.93
  Q 271.26 64.92 271.26 65.74
  L 271.24 126.24
  A 0.26 0.25 90.0 0 0 271.49 126.50
  L 288.75 126.50
  A 1.22 1.22 0.0 0 0 289.97 125.28
  Q 289.96 108.39 290.28 91.32
  C 290.39 85.90 292.54 79.39 298.71 78.29
  C 308.41 76.57 310.37 82.99 310.49 90.59
  Q 310.76 108.17 310.79 125.94
  A 0.56 0.56 0.0 0 0 311.35 126.50
  L 328.92 126.50
  A 0.55 0.55 0.0 0 0 329.47 125.96
  Q 329.61 105.49 329.39 84.95
  C 329.30 76.18 325.47 66.45 315.96 64.30
  Q 300.59 60.84 290.31 72.45
  Q 289.87 72.95 289.65 72.32"
/>
<path stroke="#89c0ea" vector-effect="non-scaling-stroke" d="
  M 362.52 100.50
  L 406.49 100.50
  A 0.39 0.39 0.0 0 0 406.88 100.14
  C 408.06 86.37 402.24 72.12 389.26 66.29
  C 370.95 58.08 348.46 68.02 343.70 88.11
  C 342.93 91.35 343.19 95.32 343.31 98.77
  C 344.37 129.43 384.06 136.96 402.17 115.87
  Q 403.46 114.36 401.60 113.69
  L 389.03 109.13
  Q 388.51 108.93 388.06 109.27
  C 379.13 115.92 362.67 114.75 362.10 100.94
  Q 362.08 100.50 362.52 100.50"
/>
<path stroke="#89c0ea" vector-effect="non-scaling-stroke" d="
  M 425.90 73.40
  C 415.90 84.50 415.65 105.10 424.44 116.74
  C 432.29 127.11 447.22 129.88 459.50 126.53
  Q 470.58 123.51 476.49 113.66
  A 0.48 0.48 0.0 0 0 476.25 112.96
  L 462.08 107.78
  Q 461.59 107.60 461.27 108.01
  C 457.02 113.40 450.30 114.97 444.47 111.78
  C 437.12 107.77 436.40 96.49 438.02 89.24
  Q 440.82 76.72 453.67 78.35
  C 457.53 78.83 458.92 81.69 461.22 84.62
  Q 461.62 85.13 462.23 84.91
  L 476.39 79.74
  Q 476.89 79.56 476.68 79.07
  C 468.24 59.86 438.88 58.99 425.90 73.40"
/>
<path stroke="#89c0ea" vector-effect="non-scaling-stroke" d="
  M 152.97 68.80
  Q 153.46 73.97 149.10 76.62
  Q 148.70 76.87 148.27 76.69
  C 142.46 74.26 134.30 70.53 130.65 77.97
  Q 128.40 82.57 131.97 85.28
  Q 139.82 91.22 144.51 96.19
  C 146.33 98.13 148.31 98.98 150.50 100.22
  A 2.84 2.84 0.0 0 1 151.55 104.12
  L 146.64 112.53
  A 0.91 0.91 0.0 0 1 145.85 112.99
  L 142.37 113.01
  A 0.67 0.66 3.0 0 0 141.72 113.59
  Q 140.86 120.16 137.17 125.64
  Q 136.80 126.20 137.44 126.41
  Q 154.37 132.12 168.52 121.70
  A 1.01 1.01 0.0 0 0 168.93 120.95
  Q 169.32 115.82 172.67 111.95
  A 0.59 0.58 -44.6 0 0 172.68 111.21
  L 170.22 108.20
  Q 169.89 107.79 170.17 107.35
  L 172.58 103.59
  A 0.76 0.76 0.0 0 0 172.46 102.63
  L 169.83 100.17
  Q 169.34 99.72 168.92 100.22
  C 163.87 106.21 157.56 98.61 157.07 93.67
  Q 156.66 89.54 159.46 85.70
  Q 165.18 77.88 176.03 80.35
  Q 176.52 80.46 176.24 80.05
  Q 164.43 62.51 142.89 65.26
  Q 142.42 65.32 142.36 65.79
  Q 142.03 68.29 144.26 68.08
  Q 149.36 67.61 152.17 67.97
  A 0.93 0.92 -89.3 0 1 152.97 68.80"
/>
<path stroke="#89c0ea" vector-effect="non-scaling-stroke" d="
  M 569.51 126.50
  A 0.50 0.50 0.0 0 0 570.01 126.00
  L 569.76 65.50
  A 0.50 0.50 0.0 0 0 569.26 65.00
  L 540.00 65.00
  A 0.50 0.50 0.0 0 0 539.50 65.50
  L 539.50 79.00
  A 0.50 0.50 0.0 0 0 540.00 79.50
  L 550.50 79.50
  A 0.50 0.50 0.0 0 1 551.00 80.00
  L 551.00 126.00
  A 0.50 0.50 0.0 0 0 551.50 126.50
  L 569.51 126.50"
/>
<path stroke="#89c0ea" vector-effect="non-scaling-stroke" d="
  M 662.74 102.05
  L 651.43 65.93
  A 1.32 1.32 0.0 0 0 650.17 65.00
  L 632.24 65.00
  A 0.80 0.80 0.0 0 0 631.49 66.09
  Q 642.47 94.72 653.41 123.13
  Q 654.40 125.71 653.90 127.53
  C 652.03 134.34 645.19 132.22 640.07 132.81
  Q 639.00 132.94 639.00 134.02
  L 639.00 145.70
  Q 639.00 146.10 639.40 146.12
  C 655.44 146.99 664.43 144.89 670.49 129.21
  Q 682.71 97.56 694.71 65.99
  A 0.73 0.73 0.0 0 0 694.03 65.00
  L 675.77 65.00
  Q 675.00 65.00 674.78 65.73
  L 663.64 102.05
  Q 663.20 103.50 662.74 102.05"
/>
<path stroke="#89c0ea" vector-effect="non-scaling-stroke" d="
  M 149.55 101.29
  C 142.93 97.85 138.59 91.76 132.48 87.37
  C 129.96 85.57 128.10 83.53 128.55 80.53
  C 130.30 68.90 140.25 72.01 147.75 74.99
  A 1.87 1.87 0.0 0 0 150.10 74.10
  L 152.01 70.35
  A 0.93 0.93 0.0 0 0 151.18 69.00
  C 149.07 69.01 140.86 70.20 140.99 66.64
  A 0.69 0.69 0.0 0 0 140.10 65.95
  Q 129.42 69.20 122.80 78.12
  Q 122.47 78.56 122.86 78.95
  C 125.69 81.74 121.94 84.88 125.58 86.35
  Q 126.03 86.53 126.31 86.93
  C 128.41 89.96 125.24 92.83 124.40 95.78
  A 1.25 1.23 38.7 0 0 124.51 96.72
  C 126.66 100.51 132.97 107.67 132.35 111.86
  Q 131.62 116.81 130.05 121.29
  A 1.27 1.27 0.0 0 0 130.62 122.80
  L 134.93 125.23
  A 0.66 0.65 31.0 0 0 135.79 125.02
  Q 139.60 119.18 140.39 112.22
  Q 140.48 111.46 141.24 111.42
  L 145.24 111.16
  Q 145.78 111.13 146.05 110.66
  L 150.19 103.50
  A 1.60 1.59 -61.2 0 0 149.55 101.29"
/>
<path stroke="#89c0ea" vector-effect="non-scaling-stroke" d="
  M 125.06 87.78
  Q 121.23 85.91 122.77 82.08
  Q 123.33 80.67 121.66 80.36
  A 0.63 0.63 0.0 0 0 120.97 80.72
  Q 110.34 103.49 127.88 120.63
  A 0.59 0.58 29.1 0 0 128.86 120.36
  C 129.81 116.54 132.39 111.35 129.86 107.66
  Q 126.80 103.20 123.87 98.65
  C 121.78 95.38 124.05 92.46 125.66 89.88
  A 1.47 1.46 -61.1 0 0 125.06 87.78"
/>
<path stroke="#89c0ea" vector-effect="non-scaling-stroke" d="
  M 174.21 111.63
  L 170.60 118.63
  A 0.55 0.55 0.0 0 0 171.49 119.25
  C 179.69 110.23 183.79 96.61 178.49 85.08
  C 173.57 74.38 150.65 86.51 161.16 98.88
  Q 164.51 102.83 168.02 99.26
  A 1.23 1.21 24.2 0 1 169.00 98.90
  Q 173.33 99.29 174.00 103.48
  Q 174.09 104.01 173.80 104.46
  L 171.94 107.40
  A 0.58 0.57 -48.2 0 0 171.97 108.05
  L 174.16 110.98
  A 0.61 0.61 0.0 0 1 174.21 111.63"
/>
<path stroke="#89c0ea" vector-effect="non-scaling-stroke" d="
  M 362.39 89.53
  L 389.53 89.39
  A 0.12 0.12 0.0 0 0 389.65 89.27
  L 389.65 89.16
  A 12.71 11.73 -0.3 0 0 376.88 77.49
  L 374.92 77.51
  A 12.71 11.73 -0.3 0 0 362.27 89.30
  L 362.27 89.41
  A 0.12 0.12 0.0 0 0 362.39 89.53"
/>
</g>
<path fill="#1381d4" d="
  M 0.00 0.00
  L 720.00 0.00
  L 720.00 177.00
  L 0.00 177.00
  L 0.00 0.00
  Z
  M 571.66 43.85
  A 11.10 11.10 0.0 0 0 560.56 32.75
  A 11.10 11.10 0.0 0 0 549.46 43.85
  A 11.10 11.10 0.0 0 0 560.56 54.95
  A 11.10 11.10 0.0 0 0 571.66 43.85
  Z
  M 610.25 64.50
  L 610.25 54.52
  A 2.86 2.86 0.0 0 1 613.03 51.66
  L 622.71 51.41
  A 0.62 0.61 89.0 0 0 623.30 50.79
  L 623.23 37.23
  Q 623.22 36.65 622.65 36.62
  C 611.93 36.03 595.41 35.44 592.13 47.94
  C 590.99 52.29 591.62 58.95 591.22 64.35
  Q 591.17 65.00 590.53 65.00
  L 581.87 65.00
  Q 581.25 65.00 581.25 65.63
  L 581.18 78.96
  Q 581.17 79.50 581.71 79.50
  L 590.79 79.50
  Q 591.32 79.50 591.32 80.04
  L 591.55 125.90
  Q 591.56 126.50 592.15 126.50
  L 608.97 126.50
  A 1.28 1.28 0.0 0 0 610.25 125.22
  L 610.25 80.00
  Q 610.25 79.50 610.75 79.50
  L 622.79 79.50
  Q 623.33 79.50 623.33 78.96
  L 623.21 65.73
  A 0.73 0.73 0.0 0 0 622.48 65.00
  L 610.75 65.00
  Q 610.25 65.00 610.25 64.50
  Z
  M 107.17 108.84
  L 90.72 102.77
  A 0.50 0.49 25.9 0 0 90.13 102.97
  C 87.37 107.41 83.39 110.11 78.12 111.15
  C 42.77 118.20 44.16 53.16 76.49 59.01
  Q 84.77 60.51 89.32 67.35
  A 0.74 0.74 0.0 0 0 90.19 67.64
  L 105.99 62.02
  A 0.85 0.84 -25.6 0 0 106.43 60.78
  C 93.06 38.91 61.34 36.42 43.11 53.58
  C 27.77 68.01 27.79 99.57 41.26 115.05
  C 51.46 126.76 68.90 130.11 83.72 126.42
  Q 99.18 122.57 107.24 109.05
  A 0.15 0.14 -64.1 0 0 107.17 108.84
  Z
  M 515.00 64.55
  L 515.00 50.50
  Q 515.00 50.00 514.50 50.00
  L 496.75 50.00
  Q 496.25 50.00 496.25 50.50
  L 496.25 64.22
  Q 496.25 65.01 495.46 65.01
  L 487.25 65.00
  A 1.25 1.25 0.0 0 0 486.00 66.25
  L 486.00 78.84
  A 0.65 0.65 0.0 0 0 486.65 79.49
  L 495.75 79.50
  Q 496.23 79.50 496.23 79.99
  Q 496.27 94.49 496.29 109.00
  C 496.30 116.47 497.76 124.32 506.02 125.48
  Q 517.03 127.03 527.91 126.37
  A 0.63 0.63 0.0 0 0 528.50 125.74
  L 528.50 111.77
  A 0.48 0.48 0.0 0 0 528.03 111.29
  C 522.88 111.21 515.24 112.33 515.09 105.91
  Q 514.82 95.23 515.07 79.95
  Q 515.08 79.50 515.52 79.50
  L 528.00 79.50
  A 0.50 0.50 0.0 0 0 528.50 79.00
  L 528.50 65.99
  A 1.01 1.01 0.0 0 0 527.49 64.98
  L 515.49 65.03
  Q 515.00 65.04 515.00 64.55
  Z
  M 213.77 72.23
  L 211.79 65.54
  A 0.76 0.75 -8.2 0 0 211.06 65.00
  L 195.89 65.00
  A 0.67 0.67 0.0 0 0 195.22 65.67
  L 195.51 125.88
  A 0.63 0.62 89.5 0 0 196.13 126.50
  L 213.21 126.50
  Q 213.74 126.50 213.74 125.97
  Q 213.67 110.78 214.07 95.94
  C 214.30 87.65 215.04 77.61 225.97 78.10
  C 234.07 78.47 234.44 84.94 234.51 91.25
  Q 234.72 108.55 235.08 126.09
  A 0.42 0.42 0.0 0 0 235.50 126.50
  L 252.74 126.50
  A 0.92 0.91 90.0 0 0 253.65 125.58
  Q 253.46 107.05 253.46 90.27
  C 253.46 79.78 252.46 67.22 239.91 64.46
  Q 224.58 61.08 214.37 72.37
  Q 213.95 72.84 213.77 72.23
  Z
  M 289.65 72.32
  Q 288.77 69.88 288.00 66.48
  Q 287.60 64.71 285.90 64.89
  C 281.45 65.35 276.49 65.02 272.07 64.93
  Q 271.26 64.92 271.26 65.74
  L 271.24 126.24
  A 0.26 0.25 90.0 0 0 271.49 126.50
  L 288.75 126.50
  A 1.22 1.22 0.0 0 0 289.97 125.28
  Q 289.96 108.39 290.28 91.32
  C 290.39 85.90 292.54 79.39 298.71 78.29
  C 308.41 76.57 310.37 82.99 310.49 90.59
  Q 310.76 108.17 310.79 125.94
  A 0.56 0.56 0.0 0 0 311.35 126.50
  L 328.92 126.50
  A 0.55 0.55 0.0 0 0 329.47 125.96
  Q 329.61 105.49 329.39 84.95
  C 329.30 76.18 325.47 66.45 315.96 64.30
  Q 300.59 60.84 290.31 72.45
  Q 289.87 72.95 289.65 72.32
  Z
  M 362.52 100.50
  L 406.49 100.50
  A 0.39 0.39 0.0 0 0 406.88 100.14
  C 408.06 86.37 402.24 72.12 389.26 66.29
  C 370.95 58.08 348.46 68.02 343.70 88.11
  C 342.93 91.35 343.19 95.32 343.31 98.77
  C 344.37 129.43 384.06 136.96 402.17 115.87
  Q 403.46 114.36 401.60 113.69
  L 389.03 109.13
  Q 388.51 108.93 388.06 109.27
  C 379.13 115.92 362.67 114.75 362.10 100.94
  Q 362.08 100.50 362.52 100.50
  Z
  M 425.90 73.40
  C 415.90 84.50 415.65 105.10 424.44 116.74
  C 432.29 127.11 447.22 129.88 459.50 126.53
  Q 470.58 123.51 476.49 113.66
  A 0.48 0.48 0.0 0 0 476.25 112.96
  L 462.08 107.78
  Q 461.59 107.60 461.27 108.01
  C 457.02 113.40 450.30 114.97 444.47 111.78
  C 437.12 107.77 436.40 96.49 438.02 89.24
  Q 440.82 76.72 453.67 78.35
  C 457.53 78.83 458.92 81.69 461.22 84.62
  Q 461.62 85.13 462.23 84.91
  L 476.39 79.74
  Q 476.89 79.56 476.68 79.07
  C 468.24 59.86 438.88 58.99 425.90 73.40
  Z
  M 152.97 68.80
  Q 153.46 73.97 149.10 76.62
  Q 148.70 76.87 148.27 76.69
  C 142.46 74.26 134.30 70.53 130.65 77.97
  Q 128.40 82.57 131.97 85.28
  Q 139.82 91.22 144.51 96.19
  C 146.33 98.13 148.31 98.98 150.50 100.22
  A 2.84 2.84 0.0 0 1 151.55 104.12
  L 146.64 112.53
  A 0.91 0.91 0.0 0 1 145.85 112.99
  L 142.37 113.01
  A 0.67 0.66 3.0 0 0 141.72 113.59
  Q 140.86 120.16 137.17 125.64
  Q 136.80 126.20 137.44 126.41
  Q 154.37 132.12 168.52 121.70
  A 1.01 1.01 0.0 0 0 168.93 120.95
  Q 169.32 115.82 172.67 111.95
  A 0.59 0.58 -44.6 0 0 172.68 111.21
  L 170.22 108.20
  Q 169.89 107.79 170.17 107.35
  L 172.58 103.59
  A 0.76 0.76 0.0 0 0 172.46 102.63
  L 169.83 100.17
  Q 169.34 99.72 168.92 100.22
  C 163.87 106.21 157.56 98.61 157.07 93.67
  Q 156.66 89.54 159.46 85.70
  Q 165.18 77.88 176.03 80.35
  Q 176.52 80.46 176.24 80.05
  Q 164.43 62.51 142.89 65.26
  Q 142.42 65.32 142.36 65.79
  Q 142.03 68.29 144.26 68.08
  Q 149.36 67.61 152.17 67.97
  A 0.93 0.92 -89.3 0 1 152.97 68.80
  Z
  M 569.51 126.50
  A 0.50 0.50 0.0 0 0 570.01 126.00
  L 569.76 65.50
  A 0.50 0.50 0.0 0 0 569.26 65.00
  L 540.00 65.00
  A 0.50 0.50 0.0 0 0 539.50 65.50
  L 539.50 79.00
  A 0.50 0.50 0.0 0 0 540.00 79.50
  L 550.50 79.50
  A 0.50 0.50 0.0 0 1 551.00 80.00
  L 551.00 126.00
  A 0.50 0.50 0.0 0 0 551.50 126.50
  L 569.51 126.50
  Z
  M 662.74 102.05
  L 651.43 65.93
  A 1.32 1.32 0.0 0 0 650.17 65.00
  L 632.24 65.00
  A 0.80 0.80 0.0 0 0 631.49 66.09
  Q 642.47 94.72 653.41 123.13
  Q 654.40 125.71 653.90 127.53
  C 652.03 134.34 645.19 132.22 640.07 132.81
  Q 639.00 132.94 639.00 134.02
  L 639.00 145.70
  Q 639.00 146.10 639.40 146.12
  C 655.44 146.99 664.43 144.89 670.49 129.21
  Q 682.71 97.56 694.71 65.99
  A 0.73 0.73 0.0 0 0 694.03 65.00
  L 675.77 65.00
  Q 675.00 65.00 674.78 65.73
  L 663.64 102.05
  Q 663.20 103.50 662.74 102.05
  Z
  M 149.55 101.29
  C 142.93 97.85 138.59 91.76 132.48 87.37
  C 129.96 85.57 128.10 83.53 128.55 80.53
  C 130.30 68.90 140.25 72.01 147.75 74.99
  A 1.87 1.87 0.0 0 0 150.10 74.10
  L 152.01 70.35
  A 0.93 0.93 0.0 0 0 151.18 69.00
  C 149.07 69.01 140.86 70.20 140.99 66.64
  A 0.69 0.69 0.0 0 0 140.10 65.95
  Q 129.42 69.20 122.80 78.12
  Q 122.47 78.56 122.86 78.95
  C 125.69 81.74 121.94 84.88 125.58 86.35
  Q 126.03 86.53 126.31 86.93
  C 128.41 89.96 125.24 92.83 124.40 95.78
  A 1.25 1.23 38.7 0 0 124.51 96.72
  C 126.66 100.51 132.97 107.67 132.35 111.86
  Q 131.62 116.81 130.05 121.29
  A 1.27 1.27 0.0 0 0 130.62 122.80
  L 134.93 125.23
  A 0.66 0.65 31.0 0 0 135.79 125.02
  Q 139.60 119.18 140.39 112.22
  Q 140.48 111.46 141.24 111.42
  L 145.24 111.16
  Q 145.78 111.13 146.05 110.66
  L 150.19 103.50
  A 1.60 1.59 -61.2 0 0 149.55 101.29
  Z
  M 125.06 87.78
  Q 121.23 85.91 122.77 82.08
  Q 123.33 80.67 121.66 80.36
  A 0.63 0.63 0.0 0 0 120.97 80.72
  Q 110.34 103.49 127.88 120.63
  A 0.59 0.58 29.1 0 0 128.86 120.36
  C 129.81 116.54 132.39 111.35 129.86 107.66
  Q 126.80 103.20 123.87 98.65
  C 121.78 95.38 124.05 92.46 125.66 89.88
  A 1.47 1.46 -61.1 0 0 125.06 87.78
  Z
  M 174.21 111.63
  L 170.60 118.63
  A 0.55 0.55 0.0 0 0 171.49 119.25
  C 179.69 110.23 183.79 96.61 178.49 85.08
  C 173.57 74.38 150.65 86.51 161.16 98.88
  Q 164.51 102.83 168.02 99.26
  A 1.23 1.21 24.2 0 1 169.00 98.90
  Q 173.33 99.29 174.00 103.48
  Q 174.09 104.01 173.80 104.46
  L 171.94 107.40
  A 0.58 0.57 -48.2 0 0 171.97 108.05
  L 174.16 110.98
  A 0.61 0.61 0.0 0 1 174.21 111.63
  Z"
/>
<circle fill="#ffffff" cx="560.56" cy="43.85" r="11.10"/>
<path fill="#ffffff" d="
  M 610.75 65.00
  L 622.48 65.00
  A 0.73 0.73 0.0 0 1 623.21 65.73
  L 623.33 78.96
  Q 623.33 79.50 622.79 79.50
  L 610.75 79.50
  Q 610.25 79.50 610.25 80.00
  L 610.25 125.22
  A 1.28 1.28 0.0 0 1 608.97 126.50
  L 592.15 126.50
  Q 591.56 126.50 591.55 125.90
  L 591.32 80.04
  Q 591.32 79.50 590.79 79.50
  L 581.71 79.50
  Q 581.17 79.50 581.18 78.96
  L 581.25 65.63
  Q 581.25 65.00 581.87 65.00
  L 590.53 65.00
  Q 591.17 65.00 591.22 64.35
  C 591.62 58.95 590.99 52.29 592.13 47.94
  C 595.41 35.44 611.93 36.03 622.65 36.62
  Q 623.22 36.65 623.23 37.23
  L 623.30 50.79
  A 0.62 0.61 89.0 0 1 622.71 51.41
  L 613.03 51.66
  A 2.86 2.86 0.0 0 0 610.25 54.52
  L 610.25 64.50
  Q 610.25 65.00 610.75 65.00
  Z"
/>
<path fill="#ffffff" d="
  M 107.17 108.84
  A 0.15 0.14 -64.1 0 1 107.24 109.05
  Q 99.18 122.57 83.72 126.42
  C 68.90 130.11 51.46 126.76 41.26 115.05
  C 27.79 99.57 27.77 68.01 43.11 53.58
  C 61.34 36.42 93.06 38.91 106.43 60.78
  A 0.85 0.84 -25.6 0 1 105.99 62.02
  L 90.19 67.64
  A 0.74 0.74 0.0 0 1 89.32 67.35
  Q 84.77 60.51 76.49 59.01
  C 44.16 53.16 42.77 118.20 78.12 111.15
  C 83.39 110.11 87.37 107.41 90.13 102.97
  A 0.50 0.49 25.9 0 1 90.72 102.77
  L 107.17 108.84
  Z"
/>
<path fill="#ffffff" d="
  M 515.49 65.03
  L 527.49 64.98
  A 1.01 1.01 0.0 0 1 528.50 65.99
  L 528.50 79.00
  A 0.50 0.50 0.0 0 1 528.00 79.50
  L 515.52 79.50
  Q 515.08 79.50 515.07 79.95
  Q 514.82 95.23 515.09 105.91
  C 515.24 112.33 522.88 111.21 528.03 111.29
  A 0.48 0.48 0.0 0 1 528.50 111.77
  L 528.50 125.74
  A 0.63 0.63 0.0 0 1 527.91 126.37
  Q 517.03 127.03 506.02 125.48
  C 497.76 124.32 496.30 116.47 496.29 109.00
  Q 496.27 94.49 496.23 79.99
  Q 496.23 79.50 495.75 79.50
  L 486.65 79.49
  A 0.65 0.65 0.0 0 1 486.00 78.84
  L 486.00 66.25
  A 1.25 1.25 0.0 0 1 487.25 65.00
  L 495.46 65.01
  Q 496.25 65.01 496.25 64.22
  L 496.25 50.50
  Q 496.25 50.00 496.75 50.00
  L 514.50 50.00
  Q 515.00 50.00 515.00 50.50
  L 515.00 64.55
  Q 515.00 65.04 515.49 65.03
  Z"
/>
<path fill="#ffffff" d="
  M 214.37 72.37
  Q 224.58 61.08 239.91 64.46
  C 252.46 67.22 253.46 79.78 253.46 90.27
  Q 253.46 107.05 253.65 125.58
  A 0.92 0.91 90.0 0 1 252.74 126.50
  L 235.50 126.50
  A 0.42 0.42 0.0 0 1 235.08 126.09
  Q 234.72 108.55 234.51 91.25
  C 234.44 84.94 234.07 78.47 225.97 78.10
  C 215.04 77.61 214.30 87.65 214.07 95.94
  Q 213.67 110.78 213.74 125.97
  Q 213.74 126.50 213.21 126.50
  L 196.13 126.50
  A 0.63 0.62 89.5 0 1 195.51 125.88
  L 195.22 65.67
  A 0.67 0.67 0.0 0 1 195.89 65.00
  L 211.06 65.00
  A 0.76 0.75 -8.2 0 1 211.79 65.54
  L 213.77 72.23
  Q 213.95 72.84 214.37 72.37
  Z"
/>
<path fill="#ffffff" d="
  M 290.31 72.45
  Q 300.59 60.84 315.96 64.30
  C 325.47 66.45 329.30 76.18 329.39 84.95
  Q 329.61 105.49 329.47 125.96
  A 0.55 0.55 0.0 0 1 328.92 126.50
  L 311.35 126.50
  A 0.56 0.56 0.0 0 1 310.79 125.94
  Q 310.76 108.17 310.49 90.59
  C 310.37 82.99 308.41 76.57 298.71 78.29
  C 292.54 79.39 290.39 85.90 290.28 91.32
  Q 289.96 108.39 289.97 125.28
  A 1.22 1.22 0.0 0 1 288.75 126.50
  L 271.49 126.50
  A 0.26 0.25 90.0 0 1 271.24 126.24
  L 271.26 65.74
  Q 271.26 64.92 272.07 64.93
  C 276.49 65.02 281.45 65.35 285.90 64.89
  Q 287.60 64.71 288.00 66.48
  Q 288.77 69.88 289.65 72.32
  Q 289.87 72.95 290.31 72.45
  Z"
/>
<path fill="#ffffff" d="
  M 362.10 100.94
  C 362.67 114.75 379.13 115.92 388.06 109.27
  Q 388.51 108.93 389.03 109.13
  L 401.60 113.69
  Q 403.46 114.36 402.17 115.87
  C 384.06 136.96 344.37 129.43 343.31 98.77
  C 343.19 95.32 342.93 91.35 343.70 88.11
  C 348.46 68.02 370.95 58.08 389.26 66.29
  C 402.24 72.12 408.06 86.37 406.88 100.14
  A 0.39 0.39 0.0 0 1 406.49 100.50
  L 362.52 100.50
  Q 362.08 100.50 362.10 100.94
  Z
  M 362.39 89.53
  L 389.53 89.39
  A 0.12 0.12 0.0 0 0 389.65 89.27
  L 389.65 89.16
  A 12.71 11.73 -0.3 0 0 376.88 77.49
  L 374.92 77.51
  A 12.71 11.73 -0.3 0 0 362.27 89.30
  L 362.27 89.41
  A 0.12 0.12 0.0 0 0 362.39 89.53
  Z"
/>
<path fill="#ffffff" d="
  M 425.90 73.40
  C 438.88 58.99 468.24 59.86 476.68 79.07
  Q 476.89 79.56 476.39 79.74
  L 462.23 84.91
  Q 461.62 85.13 461.22 84.62
  C 458.92 81.69 457.53 78.83 453.67 78.35
  Q 440.82 76.72 438.02 89.24
  C 436.40 96.49 437.12 107.77 444.47 111.78
  C 450.30 114.97 457.02 113.40 461.27 108.01
  Q 461.59 107.60 462.08 107.78
  L 476.25 112.96
  A 0.48 0.48 0.0 0 1 476.49 113.66
  Q 470.58 123.51 459.50 126.53
  C 447.22 129.88 432.29 127.11 424.44 116.74
  C 415.65 105.10 415.90 84.50 425.90 73.40
  Z"
/>
<path fill="#ffffff" d="
  M 152.17 67.97
  Q 149.36 67.61 144.26 68.08
  Q 142.03 68.29 142.36 65.79
  Q 142.42 65.32 142.89 65.26
  Q 164.43 62.51 176.24 80.05
  Q 176.52 80.46 176.03 80.35
  Q 165.18 77.88 159.46 85.70
  Q 156.66 89.54 157.07 93.67
  C 157.56 98.61 163.87 106.21 168.92 100.22
  Q 169.34 99.72 169.83 100.17
  L 172.46 102.63
  A 0.76 0.76 0.0 0 1 172.58 103.59
  L 170.17 107.35
  Q 169.89 107.79 170.22 108.20
  L 172.68 111.21
  A 0.59 0.58 -44.6 0 1 172.67 111.95
  Q 169.32 115.82 168.93 120.95
  A 1.01 1.01 0.0 0 1 168.52 121.70
  Q 154.37 132.12 137.44 126.41
  Q 136.80 126.20 137.17 125.64
  Q 140.86 120.16 141.72 113.59
  A 0.67 0.66 3.0 0 1 142.37 113.01
  L 145.85 112.99
  A 0.91 0.91 0.0 0 0 146.64 112.53
  L 151.55 104.12
  A 2.84 2.84 0.0 0 0 150.50 100.22
  C 148.31 98.98 146.33 98.13 144.51 96.19
  Q 139.82 91.22 131.97 85.28
  Q 128.40 82.57 130.65 77.97
  C 134.30 70.53 142.46 74.26 148.27 76.69
  Q 148.70 76.87 149.10 76.62
  Q 153.46 73.97 152.97 68.80
  A 0.93 0.92 -89.3 0 0 152.17 67.97
  Z"
/>
<path fill="#ffffff" d="
  M 569.51 126.50
  L 551.50 126.50
  A 0.50 0.50 0.0 0 1 551.00 126.00
  L 551.00 80.00
  A 0.50 0.50 0.0 0 0 550.50 79.50
  L 540.00 79.50
  A 0.50 0.50 0.0 0 1 539.50 79.00
  L 539.50 65.50
  A 0.50 0.50 0.0 0 1 540.00 65.00
  L 569.26 65.00
  A 0.50 0.50 0.0 0 1 569.76 65.50
  L 570.01 126.00
  A 0.50 0.50 0.0 0 1 569.51 126.50
  Z"
/>
<path fill="#ffffff" d="
  M 662.74 102.05
  Q 663.20 103.50 663.64 102.05
  L 674.78 65.73
  Q 675.00 65.00 675.77 65.00
  L 694.03 65.00
  A 0.73 0.73 0.0 0 1 694.71 65.99
  Q 682.71 97.56 670.49 129.21
  C 664.43 144.89 655.44 146.99 639.40 146.12
  Q 639.00 146.10 639.00 145.70
  L 639.00 134.02
  Q 639.00 132.94 640.07 132.81
  C 645.19 132.22 652.03 134.34 653.90 127.53
  Q 654.40 125.71 653.41 123.13
  Q 642.47 94.72 631.49 66.09
  A 0.80 0.80 0.0 0 1 632.24 65.00
  L 650.17 65.00
  A 1.32 1.32 0.0 0 1 651.43 65.93
  L 662.74 102.05
  Z"
/>
<path fill="#ffffff" d="
  M 149.55 101.29
  A 1.60 1.59 -61.2 0 1 150.19 103.50
  L 146.05 110.66
  Q 145.78 111.13 145.24 111.16
  L 141.24 111.42
  Q 140.48 111.46 140.39 112.22
  Q 139.60 119.18 135.79 125.02
  A 0.66 0.65 31.0 0 1 134.93 125.23
  L 130.62 122.80
  A 1.27 1.27 0.0 0 1 130.05 121.29
  Q 131.62 116.81 132.35 111.86
  C 132.97 107.67 126.66 100.51 124.51 96.72
  A 1.25 1.23 38.7 0 1 124.40 95.78
  C 125.24 92.83 128.41 89.96 126.31 86.93
  Q 126.03 86.53 125.58 86.35
  C 121.94 84.88 125.69 81.74 122.86 78.95
  Q 122.47 78.56 122.80 78.12
  Q 129.42 69.20 140.10 65.95
  A 0.69 0.69 0.0 0 1 140.99 66.64
  C 140.86 70.20 149.07 69.01 151.18 69.00
  A 0.93 0.93 0.0 0 1 152.01 70.35
  L 150.10 74.10
  A 1.87 1.87 0.0 0 1 147.75 74.99
  C 140.25 72.01 130.30 68.90 128.55 80.53
  C 128.10 83.53 129.96 85.57 132.48 87.37
  C 138.59 91.76 142.93 97.85 149.55 101.29
  Z"
/>
<path fill="#1381d4" d="
  M 362.39 89.53
  A 0.12 0.12 0.0 0 1 362.27 89.41
  L 362.27 89.30
  A 12.71 11.73 -0.3 0 1 374.92 77.51
  L 376.88 77.49
  A 12.71 11.73 -0.3 0 1 389.65 89.16
  L 389.65 89.27
  A 0.12 0.12 0.0 0 1 389.53 89.39
  L 362.39 89.53
  Z"
/>
<path fill="#ffffff" d="
  M 125.06 87.78
  A 1.47 1.46 -61.1 0 1 125.66 89.88
  C 124.05 92.46 121.78 95.38 123.87 98.65
  Q 126.80 103.20 129.86 107.66
  C 132.39 111.35 129.81 116.54 128.86 120.36
  A 0.59 0.58 29.1 0 1 127.88 120.63
  Q 110.34 103.49 120.97 80.72
  A 0.63 0.63 0.0 0 1 121.66 80.36
  Q 123.33 80.67 122.77 82.08
  Q 121.23 85.91 125.06 87.78
  Z"
/>
<path fill="#ffffff" d="
  M 174.16 110.98
  L 171.97 108.05
  A 0.58 0.57 -48.2 0 1 171.94 107.40
  L 173.80 104.46
  Q 174.09 104.01 174.00 103.48
  Q 173.33 99.29 169.00 98.90
  A 1.23 1.21 24.2 0 0 168.02 99.26
  Q 164.51 102.83 161.16 98.88
  C 150.65 86.51 173.57 74.38 178.49 85.08
  C 183.79 96.61 179.69 110.23 171.49 119.25
  A 0.55 0.55 0.0 0 1 170.60 118.63
  L 174.21 111.63
  A 0.61 0.61 0.0 0 0 174.16 110.98
  Z"
/>
</svg>
